<?xml version="1.0" encoding="utf-8"?>
<!-- Generator: Adobe Illustrator 27.5.0, SVG Export Plug-In . SVG Version: 6.00 Build 0)  -->
<svg version="1.1" id="Layer_3" xmlns="http://www.w3.org/2000/svg" xmlns:xlink="http://www.w3.org/1999/xlink" x="0px" y="0px"
	 viewBox="0 0 583.5 500.5" style="enable-background:new 0 0 583.5 500.5;" xml:space="preserve">
<style type="text/css">
	.st0{fill:#DF6133;}
	.st1{fill:none;stroke:#DF6133;stroke-linecap:round;stroke-linejoin:round;}
</style>
<path class="st0" d="M291.7,50.8c0-70.4-243.7,64.5-180.1,99.7C48,115.3,48,385.2,111.6,350C48,385.2,291.7,520.1,291.7,449.7
	c0,70.4,243.7-64.5,180.1-99.7c63.6,35.2,63.6-234.6,0-199.5C535.4,115.3,291.7-19.6,291.7,50.8L291.7,50.8z M291.1,286.3
	c-26.7,12.6-48.3-9-35.7-35.7c-12.6-26.7,9-48.3,35.7-35.7c26.7-12.6,48.3,9,35.7,35.7C339.4,277.3,317.7,298.9,291.1,286.3z"/>
<path class="st1" d="M291.7,50.8c0-70.4-243.7,64.5-180.1,99.7C48,115.3,48,385.2,111.6,350C48,385.2,291.7,520.1,291.7,449.7
	c0,70.4,243.7-64.5,180.1-99.7c63.6,35.2,63.6-234.6,0-199.5C535.4,115.3,291.7-19.6,291.7,50.8L291.7,50.8z M291.1,286.3
	c-26.7,12.6-48.3-9-35.7-35.7c-12.6-26.7,9-48.3,35.7-35.7c26.7-12.6,48.3,9,35.7,35.7C339.4,277.3,317.7,298.9,291.1,286.3z"/>
</svg>
