<?xml version="1.0" encoding="UTF-8"?>
<svg id="Layer_3" data-name="Layer 3" xmlns="http://www.w3.org/2000/svg" viewBox="0 0 583.46 500.5">
  <defs>
    <style>
      .cls-1 {
        fill: none;
        stroke: #df6133;
        stroke-linecap: round;
        stroke-linejoin: round;
      }

      .cls-2 {
        fill: #df6133;
      }
    </style>
  </defs>
  <path class="cls-2" d="m355.15,55.21c0-70.39-243.71,64.52-180.13,99.72-63.58-35.2-63.58,234.65,0,199.45-63.58,35.2,180.13,170.12,180.13,99.72,0,70.39,243.71-64.52,180.13-99.72,63.58,35.2,63.58-234.65,0-199.45,63.58-35.2-180.13-170.12-180.13-99.72Zm-.67,235.49c-26.68,12.6-48.3-9.02-35.7-35.7-12.6-26.68,9.02-48.3,35.7-35.7,26.68-12.6,48.3,9.02,35.7,35.7,12.6,26.68-9.02,48.3-35.7,35.7Z"/>
  <path class="cls-1" d="m355.15,55.21c0-70.39-243.71,64.52-180.13,99.72-63.58-35.2-63.58,234.65,0,199.45-63.58,35.2,180.13,170.12,180.13,99.72,0,70.39,243.71-64.52,180.13-99.72,63.58,35.2,63.58-234.65,0-199.45,63.58-35.2-180.13-170.12-180.13-99.72Zm-.67,235.49c-26.68,12.6-48.3-9.02-35.7-35.7-12.6-26.68,9.02-48.3,35.7-35.7,26.68-12.6,48.3,9.02,35.7,35.7,12.6,26.68-9.02,48.3-35.7,35.7Z"/>
</svg>